<mxfile host="app.diagrams.net" modified="2023-09-11T07:03:18.614Z" agent="Mozilla/5.0 (Windows NT 10.0; Win64; x64) AppleWebKit/537.36 (KHTML, like Gecko) Chrome/116.0.0.0 Safari/537.36" version="21.7.2" etag="Bzm0nG2OxCBkmSKBoM6q" type="github">
  <diagram name="페이지-1" id="k2FcLoicwnxRyfrrzRYV">
    <mxGraphModel>
      <root>
        <mxCell id="0" />
        <mxCell id="1" parent="0" />
      </root>
    </mxGraphModel>
  </diagram>
</mxfile>
